<?xml version="1.0" standalone="no"?>
<!DOCTYPE svg PUBLIC "-//W3C//DTD SVG 20010904//EN"
 "http://www.w3.org/TR/2001/REC-SVG-20010904/DTD/svg10.dtd">
<svg version="1.0" xmlns="http://www.w3.org/2000/svg"
 width="200.000000pt" height="200.000000pt" viewBox="0 0 200.000000 200.000000"
 preserveAspectRatio="xMidYMid meet">
<metadata>
Created by potrace 1.16, written by Peter Selinger 2001-2019
</metadata>
<g transform="translate(0.000000,200.000000) scale(0.100000,-0.100000)"
fill="#000000" stroke="none">
<path d="M932 1754 c-12 -8 -22 -25 -22 -38 0 -63 179 -61 188 1 7 45 -116 72
-166 37z"/>
<path d="M980 1578 c0 -104 -5 -116 -49 -124 -20 -3 -44 -8 -53 -11 -13 -3
-18 1 -18 16 0 23 -3 24 -37 15 -19 -5 -21 -9 -12 -26 6 -11 9 -21 7 -22 -2
-1 -27 -16 -55 -33 l-53 -32 -32 40 c-32 39 -32 39 -52 20 -19 -20 -19 -20 13
-56 18 -20 31 -40 29 -43 -11 -24 -65 -91 -73 -92 -6 0 -45 18 -87 39 l-76 39
-11 -25 c-7 -14 -10 -27 -9 -28 2 -1 31 -15 65 -30 88 -39 97 -51 81 -109 -10
-38 -16 -46 -35 -46 -18 0 -23 -6 -23 -25 0 -18 5 -25 19 -25 15 0 19 -10 24
-67 3 -38 9 -76 12 -85 5 -14 -3 -20 -42 -31 -38 -11 -47 -18 -45 -33 6 -32
18 -36 61 -18 23 9 43 15 45 13 1 -2 15 -26 31 -53 l28 -50 -68 -64 -67 -64
20 -21 21 -20 61 56 c34 32 67 57 74 57 8 0 24 -8 37 -19 l23 -18 -30 -45
c-27 -40 -32 -44 -54 -36 -32 12 -70 -5 -70 -30 0 -31 37 -69 84 -87 79 -30
113 8 64 71 -13 15 -17 25 -11 21 8 -5 18 4 29 25 29 57 29 57 89 34 52 -20
55 -23 55 -56 0 -19 -6 -61 -14 -92 -13 -55 -12 -57 8 -61 12 -2 0 -5 -26 -6
-43 -1 -78 -19 -78 -41 0 -13 31 -41 57 -51 32 -12 90 -11 114 1 29 16 24 56
-9 71 l-28 12 18 84 c9 46 20 88 23 93 4 6 31 10 61 10 49 0 54 -2 54 -23 0
-14 -9 -26 -22 -32 -34 -15 -31 -57 4 -69 47 -17 146 25 135 58 -2 6 -20 19
-41 29 -48 23 -44 45 11 63 24 8 55 26 69 39 15 14 31 25 35 25 5 0 20 -18 35
-40 25 -38 27 -39 50 -23 13 8 24 18 24 21 0 3 -14 21 -31 38 l-31 32 38 46
c21 25 43 46 49 46 10 0 86 -41 132 -70 20 -13 24 -12 37 5 21 27 20 30 -11
44 -14 7 -50 28 -78 47 l-53 35 18 47 c13 33 24 47 36 47 24 0 40 35 22 47 -7
4 -17 8 -23 8 -6 0 -10 27 -10 60 l0 60 48 6 c44 6 47 8 47 36 0 28 -2 30 -26
24 -80 -20 -77 -21 -100 39 l-22 56 42 31 c22 16 56 37 74 46 35 17 39 29 20
55 -12 16 -17 14 -61 -17 -26 -18 -61 -39 -78 -46 -29 -12 -32 -11 -67 23 -30
30 -34 38 -23 51 11 13 11 19 1 31 -16 19 -36 19 -44 0 -5 -13 -10 -13 -40 1
l-34 17 20 46 c18 43 18 46 2 58 -26 19 -30 17 -48 -32 -10 -25 -19 -45 -21
-45 -24 0 -112 25 -117 34 -4 6 -8 48 -8 94 0 81 0 82 -25 82 -24 0 -25 -2
-25 -72z m255 -723 c30 -30 31 -54 4 -89 -51 -65 -152 0 -114 74 24 47 72 54
110 15z"/>
<path d="M1163 1643 c-23 -9 -14 -50 17 -77 55 -46 150 -48 150 -3 0 54 -106
105 -167 80z"/>
<path d="M562 1529 c-59 -39 -82 -114 -38 -125 50 -12 140 64 134 115 -4 35
-50 40 -96 10z"/>
<path d="M1544 1455 c-12 -29 7 -85 40 -120 36 -37 66 -44 86 -20 31 37 -41
155 -94 155 -15 0 -29 -7 -32 -15z"/>
<path d="M352 1395 c-32 -23 -52 -67 -52 -115 0 -70 57 -64 99 11 44 77 13
146 -47 104z"/>
<path d="M1589 1194 c-20 -24 -15 -111 8 -143 40 -52 83 -32 83 39 0 89 -53
149 -91 104z"/>
<path d="M354 855 c-11 -28 3 -106 23 -134 14 -18 29 -26 49 -26 28 0 29 2 32
50 2 40 -2 58 -20 85 -27 39 -74 53 -84 25z"/>
<path d="M1599 689 c-46 -50 -53 -131 -11 -137 49 -7 118 101 98 153 -10 26
-56 18 -87 -16z"/>
<path d="M395 570 c-15 -47 54 -129 112 -133 26 -2 28 1 31 36 3 33 -2 43 -36
78 -46 45 -96 54 -107 19z"/>
<path d="M1394 556 c-49 -22 -85 -66 -82 -101 2 -22 9 -31 25 -33 49 -7 133
61 133 108 0 40 -24 48 -76 26z"/>
</g>
</svg>
